<svg width="48" height="48" viewBox="0 0 48 48" fill="none" xmlns="http://www.w3.org/2000/svg">
<g clip-path="url(#clip0_18_362)">
<rect width="48" height="48" fill="white"/>
<rect width="48" height="48" fill="white"/>
<path d="M7.5 10C7.5 5.30558 11.3056 1.5 16 1.5H32C36.6944 1.5 40.5 5.30558 40.5 10V18.5H7.5V10Z" stroke="#152C5B" stroke-width="3"/>
<rect x="12.5" y="10.5" width="9" height="8" rx="2.5" stroke="#FF498B" stroke-width="3"/>
<rect x="26.5" y="10.5" width="9" height="8" rx="2.5" stroke="#FF498B" stroke-width="3"/>
<path d="M1.5 21C1.5 19.6193 2.61929 18.5 4 18.5H44C45.3807 18.5 46.5 19.6193 46.5 21V33.5H1.5V21Z" stroke="#152C5B" stroke-width="3"/>
<line x1="6.5" y1="34.5" x2="6.5" y2="42.5" stroke="#152C5B" stroke-width="3" stroke-linecap="round"/>
<line x1="41.5" y1="35.5" x2="41.5" y2="43.5" stroke="#152C5B" stroke-width="3" stroke-linecap="round"/>
<line x1="40.5" y1="37.5" x2="7.5" y2="37.5" stroke="#152C5B" stroke-width="3" stroke-linecap="round"/>
</g>
<defs>
<clipPath id="clip0_18_362">
<rect width="48" height="48" fill="white"/>
</clipPath>
</defs>
</svg>
