<svg width="48" height="48" viewBox="0 0 48 48" fill="none" xmlns="http://www.w3.org/2000/svg">
<g clip-path="url(#clip0_23_24)">
<rect width="48" height="48" fill="white"/>
<rect width="48" height="48" fill="white"/>
<path d="M5.56555 20.3223C5.86908 19.2445 6.85223 18.5 7.97193 18.5H38.9722C40.0139 18.5 40.9464 19.1459 41.3126 20.1211L43.5657 26.1212C44.1795 27.7557 42.9712 29.5 41.2252 29.5H6.28214C4.62512 29.5 3.42655 27.9173 3.87575 26.3223L5.56555 20.3223Z" stroke="#152C5B" stroke-width="3"/>
<path d="M5.5 29.5L10.5 29.5L10.5 42C10.5 43.3807 9.38071 44.5 8 44.5C6.61929 44.5 5.5 43.3807 5.5 42L5.5 29.5Z" stroke="#152C5B" stroke-width="3"/>
<path d="M41 29.5C41.1982 29.5 41.3588 29.5001 41.4977 29.5023C41.4999 29.6412 41.5 29.8018 41.5 30L41.5 42C41.5 43.3807 40.3807 44.5 39 44.5C37.6193 44.5 36.5 43.3807 36.5 42L36.5 30C36.5 29.8018 36.5001 29.6412 36.5023 29.5023C36.6412 29.5001 36.8018 29.5 37 29.5L41 29.5Z" stroke="#152C5B" stroke-width="3"/>
<path d="M16 14V17" stroke="#152C5B" stroke-width="3" stroke-linecap="round"/>
<path d="M33 14V17" stroke="#152C5B" stroke-width="3" stroke-linecap="round"/>
<path d="M13.5 5.5L18.5 5.5L18.5 10C18.5 11.3807 17.3807 12.5 16 12.5C14.6193 12.5 13.5 11.3807 13.5 10L13.5 5.5Z" stroke="#FF498B" stroke-width="3"/>
<path d="M30.5 5.5L35.5 5.5L35.5 10C35.5 11.3807 34.3807 12.5 33 12.5C31.6193 12.5 30.5 11.3807 30.5 10L30.5 5.5Z" stroke="#FF498B" stroke-width="3"/>
</g>
<defs>
<clipPath id="clip0_23_24">
<rect width="48" height="48" fill="white"/>
</clipPath>
</defs>
</svg>
