<svg width="48" height="48" viewBox="0 0 48 48" fill="none" xmlns="http://www.w3.org/2000/svg">
<rect width="48" height="48" fill="white"/>
<line x1="34.5" y1="20" x2="40.5" y2="20" stroke="#152C5B" stroke-width="3" stroke-linecap="round"/>
<circle cx="24" cy="26.5" r="6.5" stroke="#FF498B" stroke-width="3"/>
<mask id="path-4-inside-1_15_89" fill="white">
<path fill-rule="evenodd" clip-rule="evenodd" d="M18.045 9C17.3903 9 16.7771 9.32043 16.4032 9.85787L13.8696 13.5H8C3.58172 13.5 0 17.0817 0 21.5V30.5C0 34.9183 3.58172 38.5 8 38.5H40C44.4183 38.5 48 34.9183 48 30.5V21.5C48 17.0817 44.4183 13.5 40 13.5H35.0435L33.0742 10.0159C32.7194 9.38815 32.0541 9 31.3331 9H18.045Z"/>
</mask>
<path d="M16.4032 9.85787L13.9405 8.14468L13.9405 8.14468L16.4032 9.85787ZM13.8696 13.5V16.5H15.4371L16.3323 15.2132L13.8696 13.5ZM35.0435 13.5L32.4318 14.9762L33.2931 16.5H35.0435V13.5ZM33.0742 10.0159L35.6859 8.53971L35.6859 8.53971L33.0742 10.0159ZM18.8659 11.5711C18.679 11.8398 18.3724 12 18.045 12V6C16.4083 6 14.8752 6.80107 13.9405 8.14468L18.8659 11.5711ZM16.3323 15.2132L18.8659 11.5711L13.9405 8.14468L11.4068 11.7868L16.3323 15.2132ZM8 16.5H13.8696V10.5H8V16.5ZM3 21.5C3 18.7386 5.23858 16.5 8 16.5V10.5C1.92487 10.5 -3 15.4249 -3 21.5H3ZM3 30.5V21.5H-3V30.5H3ZM8 35.5C5.23858 35.5 3 33.2614 3 30.5H-3C-3 36.5751 1.92487 41.5 8 41.5V35.5ZM40 35.5H8V41.5H40V35.5ZM45 30.5C45 33.2614 42.7614 35.5 40 35.5V41.5C46.0751 41.5 51 36.5751 51 30.5H45ZM45 21.5V30.5H51V21.5H45ZM40 16.5C42.7614 16.5 45 18.7386 45 21.5H51C51 15.4249 46.0751 10.5 40 10.5V16.5ZM35.0435 16.5H40V10.5H35.0435V16.5ZM30.4625 11.4921L32.4318 14.9762L37.6552 12.0238L35.6859 8.53971L30.4625 11.4921ZM31.3331 12C30.9725 12 30.6399 11.8059 30.4625 11.4921L35.6859 8.53971C34.7989 6.97037 33.1357 6 31.3331 6V12ZM18.045 12H31.3331V6H18.045V12Z" fill="#152C5B" mask="url(#path-4-inside-1_15_89)"/>
</svg>
