<svg width="48" height="48" viewBox="0 0 48 48" fill="none" xmlns="http://www.w3.org/2000/svg">
<rect width="48" height="48" fill="white"/>
<path d="M29.5 41.5C29.5 41.8785 29.3235 42.3724 28.7258 42.9649C28.1226 43.5629 27.1734 44.1705 25.8801 44.7129C23.2996 45.795 19.6306 46.5 15.5 46.5C11.3694 46.5 7.7004 45.795 5.11994 44.7129C3.82656 44.1705 2.87736 43.5629 2.27417 42.9649C1.67654 42.3724 1.5 41.8785 1.5 41.5C1.5 41.1215 1.67654 40.6276 2.27417 40.0351C2.87736 39.4371 3.82656 38.8295 5.11994 38.2871C7.7004 37.205 11.3694 36.5 15.5 36.5C19.6306 36.5 23.2996 37.205 25.8801 38.2871C27.1734 38.8295 28.1226 39.4371 28.7258 40.0351C29.3235 40.6276 29.5 41.1215 29.5 41.5Z" stroke="#152C5B" stroke-width="3"/>
<path d="M28.5 12.2553C28.5 15.392 26.9948 23.0163 24.4899 29.9031C23.243 33.3309 21.7873 36.4643 20.2193 38.7115C18.5843 41.0546 17.1355 42 16 42C14.8645 42 13.4157 41.0546 11.7807 38.7115C10.2127 36.4643 8.757 33.3309 7.51015 29.9031C5.00516 23.0163 3.5 15.392 3.5 12.2553C3.5 6.49663 8.90268 1.5 16 1.5C23.0973 1.5 28.5 6.49663 28.5 12.2553Z" fill="white" stroke="#152C5B" stroke-width="3"/>
<circle cx="16" cy="14" r="4.5" stroke="#FF498B" stroke-width="3"/>
</svg>
